<?xml version="1.0" standalone="no"?>
<!DOCTYPE svg PUBLIC "-//W3C//DTD SVG 20010904//EN"
 "http://www.w3.org/TR/2001/REC-SVG-20010904/DTD/svg10.dtd">
<svg version="1.0" xmlns="http://www.w3.org/2000/svg"
 width="589.000000pt" height="200.000000pt" viewBox="0 0 589.000000 200.000000"
 preserveAspectRatio="xMidYMid meet">

<g transform="translate(0.000000,200.000000) scale(0.100000,-0.100000)"
fill="#000000" stroke="none">
<path d="M3610 1021 c0 -583 3 -892 10 -896 7 -4 10 295 10 889 0 591 -3 896
-10 896 -7 0 -10 -303 -10 -889z"/>
<path d="M4798 1413 c21 -4 22 -9 22 -83 0 -78 0 -79 -27 -83 -16 -2 -1 -4 32
-4 33 0 48 2 33 4 -28 4 -28 4 -28 89 l0 84 -27 -1 c-24 -2 -25 -2 -5 -6z"/>
<path d="M4018 1389 c20 -23 22 -24 22 -1 0 10 -8 18 -19 19 -18 2 -19 0 -3
-18z"/>
<path d="M3920 1379 c-6 -11 -10 -25 -8 -30 2 -5 8 4 15 21 13 34 9 40 -7 9z"/>
<path d="M4991 1388 c0 -9 -9 -22 -18 -27 -17 -10 -17 -10 0 -11 14 0 17 -9
17 -54 0 -53 9 -67 43 -65 7 0 2 4 -10 9 -20 8 -23 17 -23 59 0 43 3 50 23 54
22 4 22 4 0 6 -14 1 -23 9 -26 24 -3 13 -5 16 -6 5z"/>
<path d="M4095 1345 c-14 -13 -25 -33 -25 -45 0 -28 43 -70 72 -70 38 0 68 27
68 61 0 35 -16 69 -32 69 -6 0 -4 -8 5 -18 34 -37 12 -102 -34 -102 -78 0 -81
104 -4 123 18 4 17 5 -3 6 -13 0 -34 -10 -47 -24z"/>
<path d="M4288 1363 c-26 -4 -28 -8 -28 -51 0 -26 5 -54 10 -62 7 -11 10 0 10
38 0 50 2 54 33 67 32 14 27 16 -25 8z"/>
<path d="M4453 1363 c-14 -5 -18 -39 -5 -47 5 -3 8 5 8 17 -1 25 38 37 57 18
6 -6 16 -11 22 -11 5 0 1 7 -9 15 -20 15 -49 18 -73 8z"/>
<path d="M5126 1349 c-49 -39 -20 -119 44 -119 34 0 70 34 70 66 0 29 -41 74
-68 74 -11 0 -31 -9 -46 -21z m84 -9 c38 -38 12 -100 -42 -100 -24 0 -58 35
-58 60 0 26 34 60 60 60 11 0 29 -9 40 -20z"/>
<path d="M5327 1359 c-9 -5 -22 -7 -27 -4 -6 4 -10 -17 -9 -57 l2 -63 6 47 c7
51 33 81 64 74 9 -2 15 0 11 5 -7 12 -25 11 -47 -2z"/>
<path d="M5685 1363 c27 -7 45 -23 45 -40 0 -10 -6 -12 -21 -8 -25 8 -75 -11
-83 -32 -8 -21 12 -53 33 -53 10 0 33 3 50 6 30 6 31 8 31 58 0 58 -12 77 -49
75 -21 -1 -22 -2 -6 -6z m29 -59 c23 -9 20 -41 -5 -54 -47 -26 -95 16 -53 47
20 14 34 16 58 7z"/>
<path d="M4360 1297 l5 -62 3 54 c2 30 0 58 -5 62 -4 4 -6 -20 -3 -54z"/>
<path d="M4601 1309 c-1 -70 12 -84 69 -74 l40 7 -2 61 c-1 54 -2 56 -5 17 -5
-49 -26 -80 -54 -80 -24 0 -32 16 -40 75 l-6 50 -2 -56z"/>
<path d="M5488 1353 c19 -4 22 -11 22 -53 0 -45 -2 -49 -27 -53 -16 -2 -1 -4
32 -4 33 0 48 2 33 4 -27 4 -28 7 -28 59 0 53 -1 54 -27 53 -24 -2 -25 -2 -5
-6z"/>
<path d="M3910 1293 c0 -26 44 -63 74 -63 23 1 63 26 54 35 -3 3 -11 -1 -18
-10 -25 -31 -76 -15 -96 29 -11 26 -13 27 -14 9z"/>
<path d="M4530 1289 c15 -19 -7 -49 -37 -49 -15 0 -35 8 -46 18 -16 13 -19 14
-15 2 6 -20 49 -34 80 -27 32 8 44 36 23 54 -8 7 -11 8 -5 2z"/>
<path d="M1168 973 c-104 -104 -188 -192 -188 -196 0 -10 352 -9 368 1 9 7 12
53 10 195 l-3 187 -187 -187z"/>
<path d="M3960 1091 c0 -5 -3 -18 -6 -28 -6 -17 -5 -16 8 1 15 19 15 19 26 0
14 -24 16 -9 2 17 -11 20 -30 26 -30 10z"/>
<path d="M4446 1039 c-36 -28 -36 -82 -1 -105 14 -9 28 -14 32 -10 3 3 1 6 -5
6 -43 0 -50 81 -10 112 13 10 20 18 17 18 -4 0 -18 -9 -33 -21z"/>
<path d="M4100 1035 c-11 -13 -11 -18 0 -28 10 -10 11 -9 5 2 -5 9 -1 19 10
28 11 7 14 13 8 13 -6 0 -16 -7 -23 -15z"/>
<path d="M4172 1036 c7 -8 15 -12 17 -11 5 6 -10 25 -20 25 -5 0 -4 -6 3 -14z"/>
<path d="M4273 1035 c-8 -23 0 -24 20 -3 14 15 15 18 2 18 -9 0 -18 -7 -22
-15z"/>
<path d="M4346 1036 c21 -15 30 -14 19 3 -3 6 -14 11 -23 11 -13 0 -13 -2 4
-14z"/>
<path d="M4520 1030 c12 -12 18 -25 15 -30 -4 -6 -1 -10 5 -10 14 0 3 41 -14
52 -22 15 -26 8 -6 -12z"/>
<path d="M4614 1035 c-3 -8 -4 -20 -1 -27 3 -7 6 -3 6 9 1 12 7 24 14 26 9 4
9 6 -1 6 -7 1 -15 -6 -18 -14z"/>
<path d="M4671 1047 c2 -1 13 -9 24 -17 19 -14 19 -14 6 3 -7 9 -18 17 -24 17
-6 0 -8 -1 -6 -3z"/>
<path d="M4780 1035 c-11 -13 -11 -18 0 -28 9 -8 11 -9 6 0 -3 6 1 19 10 27 8
9 11 16 6 16 -5 0 -15 -7 -22 -15z"/>
<path d="M4841 1047 c2 -1 13 -9 24 -17 19 -14 19 -14 6 3 -7 9 -18 17 -24 17
-6 0 -8 -1 -6 -3z"/>
<path d="M4946 1028 c-35 -50 -4 -108 57 -108 41 0 67 26 67 67 0 28 -25 63
-45 63 -5 0 1 -9 13 -20 12 -12 22 -31 22 -44 0 -52 -75 -76 -104 -34 -23 32
-20 54 10 77 19 15 22 21 11 21 -9 0 -23 -10 -31 -22z"/>
<path d="M5122 990 c1 -46 3 -53 5 -25 5 48 16 62 57 74 29 9 29 9 6 10 -15 1
-32 -5 -38 -11 -10 -10 -15 -10 -22 2 -7 10 -9 -6 -8 -50z"/>
<path d="M5308 1043 c22 -4 24 -9 20 -59 -2 -32 1 -54 7 -54 6 0 9 24 7 60 -4
58 -5 60 -30 59 -25 -2 -25 -2 -4 -6z"/>
<path d="M5488 1043 c7 -3 16 -2 19 1 4 3 -2 6 -13 5 -11 0 -14 -3 -6 -6z"/>
<path d="M5548 1039 c17 -18 15 -37 -5 -42 -17 -4 -17 -5 0 -6 21 -1 23 -34 3
-50 -8 -7 -27 -11 -43 -9 -37 4 -44 40 -11 56 16 7 18 11 7 11 -9 1 -24 -8
-33 -18 -24 -27 -6 -61 32 -61 66 0 73 8 70 68 -2 39 -8 57 -18 60 -12 4 -13
2 -2 -9z"/>
<path d="M3940 1035 c0 -2 -9 -27 -20 -55 -11 -28 -16 -49 -10 -45 5 3 10 12
10 19 0 6 5 17 12 24 11 11 21 62 12 62 -2 0 -4 -2 -4 -5z"/>
<path d="M4004 1016 c2 -15 8 -32 14 -38 7 -7 12 -18 12 -24 0 -7 5 -16 10
-19 6 -4 1 18 -11 47 -25 63 -29 69 -25 34z"/>
<path d="M4178 979 c18 -20 15 -39 -10 -49 -16 -6 -18 -9 -7 -9 36 -2 52 57
19 67 -12 4 -13 2 -2 -9z"/>
<path d="M4360 976 c13 -16 12 -20 -10 -38 -21 -17 -22 -20 -6 -17 10 2 24 12
30 21 8 14 7 21 -9 35 -18 17 -18 17 -5 -1z"/>
<path d="M4698 965 c3 -19 -1 -27 -19 -34 -17 -7 -19 -10 -7 -10 28 -1 50 27
38 50 -14 26 -18 24 -12 -6z"/>
<path d="M4871 962 c0 -13 -10 -26 -23 -32 -13 -5 -16 -9 -8 -9 27 -1 42 15
37 40 -4 24 -4 24 -6 1z"/>
<path d="M4260 955 c0 -16 22 -35 40 -34 13 0 13 1 0 6 -8 4 -20 13 -27 22 -7
9 -13 11 -13 6z"/>
<path d="M4600 954 c0 -17 27 -37 42 -31 8 4 7 6 -4 6 -9 1 -22 9 -27 19 -6 9
-11 12 -11 6z"/>
<path d="M4770 948 c0 -17 36 -35 47 -24 4 3 -1 6 -10 6 -9 0 -21 8 -26 18 -9
15 -10 16 -11 0z"/>
<path d="M4090 941 c0 -9 30 -24 36 -18 2 1 -6 8 -16 15 -11 7 -20 8 -20 3z"/>
<path d="M4520 933 c-14 -7 -18 -13 -10 -13 17 0 47 17 40 23 -3 2 -16 -2 -30
-10z"/>
<path d="M3937 773 l32 -4 4 -82 3 -82 2 82 2 82 33 4 c17 2 1 4 -38 4 -38 0
-56 -2 -38 -4z"/>
<path d="M5498 758 c-8 -45 6 -141 22 -146 12 -4 13 -3 2 10 -7 9 -11 40 -10
81 2 67 -6 97 -14 55z"/>
<path d="M4092 679 c1 -40 3 -51 5 -29 6 45 40 83 70 77 13 -2 23 0 23 4 0 12
-41 11 -60 -1 -9 -5 -19 -5 -27 2 -10 8 -13 -2 -11 -53z"/>
<path d="M4270 720 c-11 -11 -20 -30 -20 -43 0 -25 26 -67 41 -67 5 0 0 9 -11
20 -31 31 -24 40 34 40 30 0 58 5 61 10 10 16 -23 60 -43 59 -13 0 -13 -2 4
-9 22 -9 37 -34 27 -44 -9 -9 -91 -7 -97 2 -6 11 5 26 29 40 11 6 14 12 8 12
-7 0 -22 -9 -33 -20z"/>
<path d="M4602 670 c1 -53 2 -57 5 -20 5 54 27 82 62 78 24 -3 26 -8 32 -63
l6 -60 1 56 c2 68 -9 81 -67 77 l-41 -3 2 -65z"/>
<path d="M4825 731 c27 -4 41 -12 43 -23 3 -13 -3 -18 -22 -18 -13 0 -37 -5
-51 -10 -21 -8 -26 -16 -23 -37 2 -14 9 -28 16 -29 7 -1 8 0 2 3 -17 8 -11 42
9 53 11 5 31 10 45 10 33 0 35 -32 4 -54 -15 -11 -17 -16 -8 -16 33 0 41 16
38 71 l-3 54 -45 1 -45 2 40 -7z"/>
<path d="M4932 677 l1 -62 6 55 c5 43 10 56 25 58 25 5 35 -14 37 -68 l2 -45
6 55 c6 50 8 55 31 55 23 0 25 -5 31 -55 l6 -55 1 51 c1 31 -3 55 -10 61 -7 6
-41 11 -75 11 l-63 2 2 -63z"/>
<path d="M5120 720 c-11 -11 -20 -30 -20 -43 0 -25 26 -67 41 -67 5 0 0 9 -11
20 -31 31 -24 40 34 40 30 0 58 5 61 10 10 16 -23 60 -43 59 -13 0 -13 -2 4
-9 22 -9 37 -34 27 -44 -10 -10 -91 -7 -98 3 -3 5 7 19 21 30 15 12 22 21 15
21 -6 0 -20 -9 -31 -20z"/>
<path d="M5280 672 c0 -35 4 -61 8 -58 5 3 7 19 4 36 -6 43 21 82 56 78 25 -3
27 -7 33 -63 l6 -60 1 56 c2 68 -9 81 -67 77 l-41 -3 0 -63z"/>
<path d="M5631 714 c-12 -15 -21 -34 -21 -43 0 -25 29 -61 48 -61 16 1 16 1 0
11 -44 25 -42 90 4 109 16 6 18 9 6 9 -9 1 -26 -11 -37 -25z"/>
<path d="M5714 719 c33 -26 35 -71 4 -93 -12 -9 -18 -16 -12 -16 20 0 44 37
44 68 0 21 -7 36 -22 46 -33 24 -45 19 -14 -5z"/>
<path d="M4478 676 c4 -53 3 -55 -25 -59 -15 -2 1 -4 37 -4 43 -1 55 2 35 6
-28 6 -30 9 -33 59 -2 28 -6 52 -10 52 -4 0 -5 -24 -4 -54z"/>
<path d="M4360 624 c-17 -9 -20 -14 -9 -14 9 0 22 7 29 15 15 18 13 18 -20 -1z"/>
<path d="M5216 625 c-11 -8 -15 -15 -9 -15 6 0 16 7 23 15 16 19 11 19 -14 0z"/>
</g>
</svg>
